<svg xmlns="http://www.w3.org/2000/svg" width="193.355" height="56.584" viewBox="0 0 193.355 56.584"><defs><style>.a{fill:#fff;}</style></defs><path class="a" d="M0,56.584H4.28V38.7A18.378,18.378,0,0,0,10.3,43.622a16.2,16.2,0,0,0,7.3,1.651,16.215,16.215,0,0,0,12.048-5.121,17.178,17.178,0,0,0,4.994-12.457A16.865,16.865,0,0,0,29.6,15.405,16.422,16.422,0,0,0,17.473,10.3a15.509,15.509,0,0,0-7.36,1.743A17.174,17.174,0,0,0,4.28,17.27V11.156H0Zm23.707-40.4a12.867,12.867,0,0,1,4.8,4.932A13.488,13.488,0,0,1,28.5,34.55a13.108,13.108,0,0,1-4.835,4.992,12.563,12.563,0,0,1-6.481,1.787,13.417,13.417,0,0,1-6.666-1.772,12.345,12.345,0,0,1-4.848-4.793,13.694,13.694,0,0,1-1.693-6.81,13.244,13.244,0,0,1,3.8-9.649,12.57,12.57,0,0,1,9.348-3.878,12.876,12.876,0,0,1,6.588,1.756Zm3.8,25.849-.009.009a11.674,11.674,0,0,0,3.3,3.026,15.459,15.459,0,0,0,8.122,1.974A15.308,15.308,0,0,0,47,45.067a12.25,12.25,0,0,0,4.826-5.452q1.6-3.5,1.609-10.365v-18.5H49.063v17.7q0,6.235-.643,8.165a8.831,8.831,0,0,1-3.443,4.539,10.472,10.472,0,0,1-6.078,1.73,10.662,10.662,0,0,1-6.174-1.774,8.456,8.456,0,0,1-2.07-2.1ZM99.255,0h4.28V12.35h6.787v3.7h-6.787V45.611h-4.28V16.05H93.416v-3.7h5.839ZM59.136,10.765h4.28v6.114a17.174,17.174,0,0,1,5.833-5.227,15.51,15.51,0,0,1,7.36-1.743,16.423,16.423,0,0,1,12.124,5.105A16.865,16.865,0,0,1,93.773,27.3a17.178,17.178,0,0,1-4.994,12.458,16.813,16.813,0,0,1-19.347,3.47,18.377,18.377,0,0,1-6.016-4.922V56.193h-4.28Zm17.119,3.271a12.57,12.57,0,0,0-9.348,3.878,13.244,13.244,0,0,0-3.8,9.649,13.694,13.694,0,0,0,1.692,6.81,12.344,12.344,0,0,0,4.849,4.794,13.415,13.415,0,0,0,6.664,1.772A12.563,12.563,0,0,0,82.8,39.152a13.107,13.107,0,0,0,4.835-4.992,13.488,13.488,0,0,0,.015-13.435,12.888,12.888,0,0,0-11.391-6.688ZM141.517,32.99l3.607,1.9a19.667,19.667,0,0,1-4.1,5.625,16.287,16.287,0,0,1-5.232,3.256,18.254,18.254,0,0,1-6.579,1.116q-8.139,0-12.729-5.335a18,18,0,0,1-4.59-12.06,17.781,17.781,0,0,1,3.886-11.28,15.886,15.886,0,0,1,13.188-6.3,16.409,16.409,0,0,1,13.585,6.45,18.013,18.013,0,0,1,3.672,11.372H116.3a13.539,13.539,0,0,0,3.7,9.5,11.812,11.812,0,0,0,8.846,3.706,14.221,14.221,0,0,0,4.943-.883,13,13,0,0,0,4.086-2.345,19.97,19.97,0,0,0,3.642-4.721Zm0-8.957a14.2,14.2,0,0,0-2.495-5.472,11.815,11.815,0,0,0-4.33-3.3,13.268,13.268,0,0,0-5.662-1.253,12.2,12.2,0,0,0-8.417,3.149,14.228,14.228,0,0,0-3.887,6.878Zm9.562-11.683h4.28v5.961a17.9,17.9,0,0,1,5.686-5.121,13.973,13.973,0,0,1,6.787-1.7,11.792,11.792,0,0,1,6.619,1.9,11.293,11.293,0,0,1,4.265,5.105q1.376,3.21,1.376,10V45.611h-4.28V29.745a39.109,39.109,0,0,0-.476-7.673,8.428,8.428,0,0,0-2.853-4.968,8.619,8.619,0,0,0-5.5-1.666,10.557,10.557,0,0,0-6.956,2.568,12.031,12.031,0,0,0-4.051,6.359,44.187,44.187,0,0,0-.611,9.049v12.2h-4.28Zm38.516,24.895a3.623,3.623,0,0,1,2.66,1.1,3.82,3.82,0,0,1,0,5.365,3.728,3.728,0,0,1-5.319,0,3.82,3.82,0,0,1,0-5.365,3.623,3.623,0,0,1,2.66-1.1Z"/></svg>